<?xml version="1.0" standalone="no"?><svg xmlns="http://www.w3.org/2000/svg" viewBox="0 0 1440 320"><path fill="#f3f4f5" fill-opacity="1" d="M0,32L24,48C48,64,96,96,144,106.7C192,117,240,107,288,96C336,85,384,75,432,58.7C480,43,528,21,576,32C624,43,672,85,720,133.3C768,181,816,235,864,245.3C912,256,960,224,1008,208C1056,192,1104,192,1152,181.3C1200,171,1248,149,1296,117.3C1344,85,1392,43,1416,21.3L1440,0L1440,320L1416,320C1392,320,1344,320,1296,320C1248,320,1200,320,1152,320C1104,320,1056,320,1008,320C960,320,912,320,864,320C816,320,768,320,720,320C672,320,624,320,576,320C528,320,480,320,432,320C384,320,336,320,288,320C240,320,192,320,144,320C96,320,48,320,24,320L0,320Z"></path></svg>